<svg width="26" height="25" viewBox="0 0 26 25" fill="none" xmlns="http://www.w3.org/2000/svg">
<path d="M17.0923 12.5C17.0923 13.2911 16.8565 14.0645 16.4148 14.7223C15.9731 15.3801 15.3452 15.8928 14.6107 16.1955C13.8761 16.4983 13.0678 16.5775 12.288 16.4231C11.5082 16.2688 10.7919 15.8878 10.2297 15.3284C9.66749 14.769 9.28462 14.0563 9.12951 13.2804C8.9744 12.5044 9.05401 11.7002 9.35827 10.9693C9.66253 10.2384 10.1778 9.61365 10.8389 9.17412C11.5 8.7346 12.2772 8.5 13.0723 8.5C14.1374 8.5033 15.158 8.92578 15.9112 9.67521C16.6644 10.4246 17.089 11.4401 17.0923 12.5ZM25.6348 7V18C25.6348 19.8565 24.8936 21.637 23.5743 22.9497C22.2549 24.2625 20.4656 25 18.5998 25H7.54477C5.67897 25 3.88959 24.2625 2.57027 22.9497C1.25095 21.637 0.509766 19.8565 0.509766 18V7C0.509766 5.14348 1.25095 3.36301 2.57027 2.05025C3.88959 0.737498 5.67897 0 7.54477 0H18.5998C20.4656 0 22.2549 0.737498 23.5743 2.05025C24.8936 3.36301 25.6348 5.14348 25.6348 7ZM19.1023 12.5C19.1023 11.3133 18.7486 10.1533 18.086 9.16658C17.4234 8.17988 16.4817 7.41085 15.3798 6.95672C14.278 6.5026 13.0656 6.38378 11.8959 6.61529C10.7262 6.8468 9.65172 7.41824 8.80841 8.25736C7.9651 9.09647 7.3908 10.1656 7.15813 11.3295C6.92546 12.4933 7.04488 13.6997 7.50127 14.7961C7.95767 15.8925 8.73055 16.8295 9.72218 17.4888C10.7138 18.1481 11.8796 18.5 13.0723 18.5C14.6715 18.5 16.2053 17.8679 17.3361 16.7426C18.467 15.6174 19.1023 14.0913 19.1023 12.5ZM21.1123 6C21.1123 5.70333 21.0239 5.41332 20.8582 5.16665C20.6926 4.91997 20.4571 4.72771 20.1817 4.61418C19.9062 4.50065 19.6031 4.47094 19.3107 4.52882C19.0182 4.5867 18.7496 4.72956 18.5388 4.93934C18.328 5.14912 18.1844 5.41639 18.1262 5.70736C18.0681 5.99834 18.0979 6.29994 18.212 6.57403C18.3261 6.84811 18.5193 7.08238 18.7672 7.2472C19.0152 7.41203 19.3066 7.5 19.6048 7.5C20.0046 7.5 20.388 7.34196 20.6707 7.06066C20.9534 6.77936 21.1123 6.39782 21.1123 6Z" fill="#BF8559"/>
</svg>
