<svg width="41" height="24" viewBox="0 0 41 24" fill="none" xmlns="http://www.w3.org/2000/svg">
<path fill-rule="evenodd" clip-rule="evenodd" d="M39.7439 1.66667C40.0421 0.726667 39.7439 0.0433331 38.4249 0.0433331H34.0389C32.9325 0.0433331 32.4216 0.641666 32.1235 1.28167C32.1235 1.28167 29.8673 6.74833 26.7166 10.2925C25.6948 11.3175 25.2267 11.6592 24.6731 11.6592C24.3749 11.6592 23.9914 11.3175 23.9914 10.3783V1.6225C23.9914 0.5125 23.6513 0 22.7142 0H15.8165C15.1348 0 14.7093 0.5125 14.7093 1.025C14.7093 2.0925 16.2847 2.34917 16.4547 5.33833V11.8333C16.4547 13.2425 16.2034 13.5 15.6457 13.5C14.1557 13.5 10.5369 7.99083 8.3661 1.71333C7.94399 0.47 7.51519 0 6.40802 0H1.98015C0.70296 0 0.490234 0.5975 0.490234 1.23833C0.490234 2.39167 1.98015 8.19917 7.42977 15.8858C11.0486 21.1358 16.2001 23.9575 20.8407 23.9575C23.6513 23.9575 23.9914 23.3167 23.9914 22.2492V18.2775C23.9914 16.9967 24.2468 16.7833 25.1412 16.7833C25.7794 16.7833 26.9293 17.1242 29.5264 19.6442C32.5062 22.6333 33.0171 24 34.6779 24H39.063C40.3402 24 40.9365 23.3592 40.5956 22.1208C40.2129 20.8825 38.7649 19.0892 36.8914 16.9542C35.8696 15.7592 34.337 14.435 33.8688 13.7942C33.2307 12.94 33.4007 12.5983 33.8688 11.83C33.8261 11.83 39.1912 4.22833 39.7439 1.66333" fill="#BF8559"/>
</svg>
